# xmcd CD database file
#
# Track frame offsets:
#	150
#	18755
#	41585
#
# Disc length: 801 seconds
#
# Revision: 1
# Processed by: cddbd v1.5.1PL2 Copyright (c) Steve Scherf et al.
# Submitted via: CDex 1.51
#
DISCID=17031f03
DTITLE=TOKIO - Mr.Traveling Man
DYEAR=2006
DGENRE=Rock
TTITLE0=Mr.Traveling Man
TTITLE1=Love is here
TTITLE2=Mr.Traveling Man(Backing Track)
EXTD=YEAR: 2006
EXTT0=
EXTT1=
EXTT2=
PLAYORDER=
